<!-- Generated by IcoMoon.io -->
<svg version="1.1" xmlns="http://www.w3.org/2000/svg" width="32" height="32" viewBox="0 0 32 32">
<title>union-ya</title>
<path d="M13.691 4.348h-0.11c-0.168-0.010-0.336-0.014-0.504-0.018h-0.364c-0.318 0-0.642 0.008-0.963 0.024-0.011-0.001-0.024-0.001-0.036-0.001s-0.025 0-0.038 0.001l0.002-0c-3.089 0.18-5.956 0.953-8.549 2.205l0.135-0.059-0.346 0.166v17.714l0.81-0.275c0.71-0.244 1.467-0.464 2.25-0.667 1.935-0.518 4.162-0.829 6.457-0.86l0.019-0v2.327c-0.29 0.002-0.57 0.010-0.852 0.024h-0.067c-1.819 0.102-3.522 0.375-5.163 0.805l0.18-0.040c-2.255 0.573-4.23 1.366-6.066 2.38l0.13-0.066v-22.718c1.793-1.066 3.867-1.934 6.064-2.497l0.165-0.036c1.759-0.473 3.779-0.749 5.863-0.757h0.347c0.409 0.010 0.808 0.029 1.182 0.057 1.078 0.078 2.076 0.243 3.041 0.492l-0.117-0.026v2.29c-0.816-0.2-1.784-0.352-2.775-0.424l-0.059-0.003-0.058-0.005c-0.198-0.017-0.395-0.034-0.579-0.034zM17.722 6.689c0.508 0.039 1.034 0.058 1.566 0.058 2.196-0.009 4.321-0.297 6.346-0.831l-0.175 0.039c2.254-0.575 4.228-1.368 6.064-2.381l-0.131 0.066v22.312c-1.793 1.065-3.867 1.933-6.064 2.497l-0.165 0.036c-1.759 0.471-3.78 0.746-5.864 0.755l-0.005 0c-0.043 0-0.093 0.001-0.144 0.001-1.53 0-3.014-0.192-4.432-0.552l0.124 0.027v-22.458c0.344 0.080 0.698 0.153 1.058 0.214 0.591 0.1 1.214 0.173 1.822 0.218zM29.078 6.862l-0.81 0.272c-0.744 0.25-1.496 0.474-2.25 0.674-2.016 0.54-4.332 0.854-6.72 0.862h-0.005c-0.528 0-1.014-0.014-1.483-0.045l-0.646-0.042v18.222l0.554 0.048c0.514 0.046 1.044 0.068 1.578 0.068 1.886-0.008 3.709-0.258 5.446-0.72l-0.15 0.034c1.587-0.403 2.965-0.913 4.271-1.546l-0.132 0.058 0.346-0.166v-17.718z"></path>
</svg>
